<?xml version="1.0" standalone="no"?>
<!DOCTYPE svg PUBLIC "-//W3C//DTD SVG 20010904//EN"
 "http://www.w3.org/TR/2001/REC-SVG-20010904/DTD/svg10.dtd">
<svg version="1.0" xmlns="http://www.w3.org/2000/svg"
 width="216.000000pt" height="234.000000pt" viewBox="0 0 216.000000 234.000000"
 preserveAspectRatio="xMidYMid meet">

<g transform="translate(0.000000,234.000000) scale(0.100000,-0.100000)"
fill="#000000" stroke="none">
<path d="M1487 1684 c3 -330 3 -596 -1 -593 -4 3 -9 84 -11 180 -3 96 -8 221
-11 279 -6 108 -6 117 -5 304 0 60 -1 112 -4 114 -3 3 -5 -28 -5 -69 0 -41 -3
-117 -6 -169 -6 -78 -10 -96 -23 -97 -29 -3 -69 -11 -91 -18 -15 -5 -20 -4
-16 4 4 6 0 11 -11 11 -32 0 -63 65 -38 82 6 5 6 8 -2 8 -7 0 -13 12 -13 26 0
16 4 23 12 18 7 -4 8 -3 4 4 -12 19 -33 14 -41 -10 -7 -21 -8 -20 -15 12 -9
41 -9 42 -14 -130 -9 -241 -9 -407 -2 -418 4 -7 4 -12 -1 -12 -4 0 17 -24 46
-54 30 -30 59 -52 66 -50 7 3 -14 30 -51 66 -35 34 -64 65 -64 70 0 6 65 -52
145 -128 80 -76 144 -143 141 -150 -3 -7 -2 -15 2 -18 13 -13 10 -41 -5 -58
-16 -18 -6 -25 13 -11 5 5 -4 -4 -21 -19 -16 -15 -25 -28 -19 -28 5 0 15 5 22
12 7 7 12 9 12 6 0 -3 -54 -49 -120 -103 -66 -53 -125 -106 -131 -116 -8 -15
-14 -17 -29 -9 -26 14 -28 13 -26 -13 1 -22 3 -22 176 -27 96 -3 181 -1 188 4
9 7 12 124 12 530 l0 523 -25 23 c-24 23 -25 27 -25 163 0 134 1 139 20 134
19 -5 20 0 20 132 l0 137 -29 28 -29 28 5 -598z m-260 -21 c-2 -16 -4 -5 -4
22 0 28 2 40 4 28 2 -13 2 -35 0 -50z m213 -57 c0 -9 -8 -12 -27 -8 -25 5 -25
6 -8 13 29 11 35 10 35 -5z m-56 -31 c3 -8 1 -15 -4 -15 -6 0 -10 7 -10 15 0
8 2 15 4 15 2 0 6 -7 10 -15z m-129 -415 c27 -27 47 -50 44 -50 -3 0 -27 23
-54 50 -27 28 -47 50 -44 50 3 0 27 -22 54 -50z m232 -112 c2 -17 0 -19 -7 -8
-5 8 -6 18 -4 22 8 12 10 10 11 -14z m-74 -455 c-40 -2 -107 -2 -150 0 -43 1
-10 3 72 3 83 0 118 -2 78 -3z"/>
<path d="M1070 2032 c-63 -130 -114 -242 -114 -249 1 -7 -2 -11 -6 -8 -7 5
-42 -63 -40 -79 1 -5 -3 -12 -8 -15 -17 -11 -53 -91 -46 -103 4 -6 3 -9 -2 -5
-7 4 -347 -650 -350 -673 0 -3 -67 -140 -150 -305 -82 -165 -175 -353 -206
-418 l-58 -117 180 0 180 0 24 48 c14 26 25 43 26 39 0 -4 -9 -26 -20 -47 -23
-44 -18 -47 38 -25 35 14 44 26 81 103 l41 87 -22 18 c-13 9 -16 15 -8 12 11
-4 20 4 28 22 6 15 9 18 6 7 -4 -18 4 -25 39 -42 69 -32 185 -65 217 -60 17 3
26 0 23 -5 -4 -6 53 -8 148 -5 160 5 160 5 326 70 31 12 50 25 46 31 -3 5 -1
7 5 4 13 -9 44 2 37 13 -3 5 0 12 6 16 8 4 9 3 5 -4 -14 -23 14 -11 76 32 35
24 62 48 61 54 -2 6 4 9 11 6 19 -7 145 139 201 234 23 40 57 116 76 170 31
93 33 103 34 265 0 92 -3 167 -7 167 -5 0 -6 11 -2 25 4 16 2 25 -6 25 -7 0
-10 8 -7 20 3 11 2 18 -3 15 -4 -3 -10 4 -13 15 -3 11 -1 18 4 14 5 -3 9 -1 9
4 0 6 -7 12 -15 16 -8 3 -15 10 -15 16 0 6 5 8 12 4 7 -4 8 -3 4 5 -4 6 -12 8
-18 5 -8 -5 -9 -1 -5 10 5 11 3 15 -5 10 -8 -5 -9 0 -5 15 3 13 3 20 -1 17 -3
-4 -12 4 -19 16 -9 18 -12 19 -13 6 0 -9 4 -19 9 -22 19 -12 19 -44 -1 -49
-15 -4 -17 -3 -8 8 8 9 7 14 -4 18 -8 3 -17 1 -20 -6 -3 -7 -3 -1 0 12 4 15 2
21 -4 17 -6 -4 -8 2 -5 15 4 14 0 26 -11 35 -12 8 -14 14 -6 19 14 9 42 -14
33 -28 -3 -6 -1 -7 5 -3 8 4 5 17 -9 41 -18 30 -24 33 -54 28 -30 -5 -36 -2
-45 18 -10 23 -10 23 -6 2 2 -13 0 -23 -5 -23 -6 0 -5 -9 1 -20 6 -11 15 -18
19 -16 4 3 8 -2 8 -10 0 -10 -10 -6 -29 13 l-30 28 13 -27 c7 -16 17 -28 22
-28 6 0 7 -3 4 -7 -4 -3 6 -18 22 -34 26 -24 27 -28 11 -32 -14 -4 -17 -1 -13
12 4 9 3 13 -2 9 -8 -8 -87 117 -88 139 0 6 -6 9 -14 6 -10 -4 -6 -13 13 -35
14 -17 23 -37 20 -44 -3 -8 13 -47 34 -87 88 -163 108 -366 55 -551 -16 -55
-37 -108 -46 -117 -10 -10 -15 -20 -12 -23 7 -6 -33 -65 -61 -89 -12 -10 -14
-15 -6 -11 8 4 -3 -13 -24 -38 -46 -54 -151 -136 -221 -171 -60 -30 -175 -65
-227 -70 -21 -2 -41 -7 -45 -10 -3 -4 -11 -7 -17 -7 -6 0 -4 5 4 11 11 8 5 9
-23 4 -48 -8 -185 12 -257 37 -81 28 -100 32 -67 13 15 -9 60 -25 100 -36 53
-14 60 -18 27 -14 -24 3 -71 17 -104 30 -46 19 -62 21 -69 12 -6 -8 -7 -7 -4
5 3 9 1 19 -6 22 -7 3 -2 3 11 0 30 -7 28 2 -5 21 -16 9 -19 13 -8 9 11 -3 26
-7 33 -7 6 0 12 -4 12 -8 0 -12 79 -39 96 -32 13 5 15 3 9 -7 -6 -10 -4 -12
10 -6 10 4 21 2 24 -3 3 -5 33 -12 66 -15 l60 -6 -55 15 c-30 9 -87 31 -127
49 -39 19 -74 32 -77 28 -14 -13 -3 15 59 149 l64 141 -44 -4 c-35 -2 -45 0
-49 14 -4 17 10 18 207 16 l212 -2 -190 -6 -190 -6 173 -2 c195 -2 176 7 172
-89 -2 -45 9 -54 30 -28 10 12 10 15 -1 15 -10 0 -10 3 -3 8 7 4 13 16 15 27
3 11 13 21 24 23 17 2 18 1 5 -10 -17 -15 -24 -38 -12 -38 14 0 43 36 35 44
-4 4 0 4 8 1 9 -3 23 3 34 15 19 21 8 29 -13 8 -7 -7 -12 -9 -12 -6 0 3 17 18
38 34 28 21 32 22 18 6 -11 -12 -15 -22 -9 -22 12 0 49 40 37 40 -5 0 14 20
41 45 l50 44 -99 93 c-55 51 -104 92 -109 90 -5 -1 -6 2 -3 7 8 12 -18 33 -29
23 -5 -4 -5 -1 -1 6 4 7 2 12 -5 12 -7 0 -9 3 -6 7 4 3 21 -6 37 -22 17 -16
30 -27 30 -24 0 3 -21 25 -46 49 -26 25 -44 37 -40 27 3 -10 3 -36 0 -58 l-7
-40 -133 2 -133 1 16 32 c20 40 19 40 27 21 4 -11 2 -14 -6 -9 -8 5 -9 2 -5
-10 4 -10 3 -15 -3 -11 -6 3 -10 1 -10 -4 0 -6 20 -11 48 -11 l47 1 72 157 72
157 5 125 c3 69 8 139 10 155 3 17 3 21 -1 10 -3 -11 -8 -22 -12 -25 -4 -3
-19 -30 -34 -60 -15 -30 -24 -44 -20 -30 4 14 8 38 8 54 1 16 10 35 20 42 18
14 18 14 1 14 -11 0 -24 -7 -30 -16 -14 -18 -50 -8 -42 12 3 8 0 11 -10 7 -7
-3 -14 -9 -14 -14 0 -5 -4 -9 -10 -9 -6 0 -6 9 0 26 6 15 6 23 1 19 -5 -3 -12
-1 -16 5 -3 5 0 10 7 11 7 1 2 4 -11 8 -22 6 -23 8 -7 23 9 9 12 19 7 23 -11
6 74 208 89 213 14 5 2 22 -13 18 -7 -1 -9 -1 -4 1 4 3 4 10 0 16 -4 7 0 8 12
3 15 -5 16 -4 5 9 -8 10 -9 15 -1 15 6 0 10 3 10 8 -4 22 3 33 19 30 18 -3 19
3 6 36 -5 13 -4 17 4 12 8 -5 10 -2 6 9 -4 10 -2 15 6 13 7 -2 15 3 18 11 3 9
0 11 -8 6 -9 -5 -11 -4 -6 4 6 9 11 9 24 -1 14 -11 14 -11 5 6 -8 15 -7 23 3
34 8 7 12 17 10 20 -2 4 52 6 120 4 l123 -3 4 -102 3 -102 2 110 2 110 -138 2
-137 1 -115 -236z m0 -82 c0 -5 -2 -10 -4 -10 -3 0 -8 5 -11 10 -3 6 -1 10 4
10 6 0 11 -4 11 -10z m-50 -78 c0 -5 -7 -17 -15 -28 -14 -18 -14 -17 -4 9 12
27 19 34 19 19z m141 -279 c-12 -20 -14 -14 -5 12 4 9 9 14 11 11 3 -2 0 -13
-6 -23z m649 -13 c0 -5 -5 -10 -11 -10 -5 0 -7 5 -4 10 3 6 8 10 11 10 2 0 4
-4 4 -10z m-669 -33 c-10 -9 -11 -8 -5 6 3 10 9 15 12 12 3 -3 0 -11 -7 -18z
m-27 -73 c4 -10 2 -13 -6 -8 -8 5 -9 2 -5 -10 5 -11 3 -15 -5 -10 -8 5 -9 2
-5 -10 5 -11 3 -15 -5 -10 -8 5 -9 2 -5 -10 5 -11 3 -15 -5 -10 -8 5 -9 1 -4
-12 5 -14 4 -16 -4 -8 -8 8 -5 23 11 58 13 25 24 46 25 46 1 0 5 -7 8 -16z
m779 -64 c3 -11 1 -18 -4 -14 -5 3 -9 12 -9 20 0 20 7 17 13 -6z m-823 -53 c0
-7 -4 -6 -10 3 -8 12 -10 12 -10 1 0 -8 -3 -12 -6 -8 -9 9 6 28 17 22 5 -4 9
-12 9 -18z m-17 -35 c-5 -11 -7 -11 -15 0 -7 9 -8 7 -5 -10 3 -14 1 -20 -6
-15 -7 4 -8 0 -4 -11 5 -11 3 -15 -5 -10 -8 5 -9 2 -5 -10 4 -11 3 -15 -4 -10
-7 4 -9 0 -5 -12 7 -25 -8 -53 -17 -30 -8 21 39 123 57 123 8 0 12 -6 9 -15z
m-80 -145 c3 -8 -1 -14 -8 -14 -7 0 -11 6 -8 14 3 7 6 13 8 13 2 0 5 -6 8 -13z
m-322 -76 c-5 -4 -24 -37 -42 -74 -17 -38 -33 -66 -35 -64 -2 2 15 45 39 96
30 65 43 86 45 70 2 -12 -1 -25 -7 -28z m477 -38 c-43 -2 -113 -2 -155 0 -43
1 -8 3 77 3 85 0 120 -2 78 -3z m819 -85 c-3 -8 -6 -5 -6 6 -1 11 2 17 5 13 3
-3 4 -12 1 -19z m-10 -40 c-3 -8 -6 -5 -6 6 -1 11 2 17 5 13 3 -3 4 -12 1 -19z
m-10 -40 c-3 -8 -6 -5 -6 6 -1 11 2 17 5 13 3 -3 4 -12 1 -19z m-1515 -282
c-12 -25 -23 -46 -27 -46 -3 0 1 12 8 28 24 45 31 76 17 67 -9 -6 -11 -4 -5 4
5 8 11 9 17 3 6 -6 3 -26 -10 -56z m249 -133 c-8 -14 -10 -14 -11 -3 0 13 -1
13 -11 0 -9 -13 -10 -13 -6 0 2 8 10 14 16 13 6 -2 11 2 11 9 0 6 3 9 6 5 3
-3 1 -14 -5 -24z m-20 -116 c-10 -9 -11 -8 -5 6 3 10 9 15 12 12 3 -3 0 -11
-7 -18z m-55 -44 c-8 -15 -15 -25 -16 -21 0 12 23 58 27 54 3 -2 -2 -17 -11
-33z m-436 -191 c0 -5 -7 -17 -15 -28 -14 -18 -14 -17 -4 9 12 27 19 34 19 19z
m185 -31 c-44 -4 -96 -3 -115 0 -19 4 17 6 80 6 110 0 111 -1 35 -6z m28 -28
c-46 -2 -120 -2 -165 0 -46 1 -9 3 82 3 91 0 128 -2 83 -3z"/>
<path d="M1206 2213 c-6 -14 -5 -15 5 -6 7 7 10 15 7 18 -3 3 -9 -2 -12 -12z"/>
<path d="M1229 2203 c-13 -16 -12 -17 4 -4 9 7 17 15 17 17 0 8 -8 3 -21 -13z"/>
<path d="M952 1921 c-53 -111 -59 -119 -82 -114 -20 4 -22 3 -10 -7 12 -9 9
-10 -13 -5 -20 4 -27 2 -22 -6 5 -8 1 -9 -15 -4 -15 5 -20 4 -16 -4 5 -7 1 -8
-10 -4 -12 4 -15 3 -10 -5 6 -11 -5 -17 -27 -13 -4 0 -16 -8 -27 -19 -16 -16
-25 -18 -40 -10 -25 13 -40 13 -17 -1 20 -12 14 -31 -8 -23 -8 4 -12 11 -8 17
3 6 1 7 -6 3 -9 -6 -9 -11 -1 -21 8 -9 8 -15 0 -20 -5 -3 -10 -4 -10 0 0 3 -9
1 -20 -5 -11 -6 -17 -16 -14 -22 4 -6 3 -8 -3 -5 -6 4 -19 -3 -29 -14 -10 -11
-23 -18 -30 -15 -8 3 -11 -1 -7 -9 3 -8 10 -12 17 -8 6 3 7 2 3 -3 -5 -5 -14
-9 -20 -9 -7 -1 -11 -7 -9 -14 1 -7 -2 -10 -7 -7 -13 8 -64 -62 -55 -76 4 -7
3 -8 -4 -4 -7 4 -25 -19 -46 -61 -19 -37 -35 -64 -36 -59 -1 17 73 146 106
184 35 41 43 59 22 46 -10 -6 -10 -5 -1 8 7 8 9 19 5 23 -4 5 -2 5 4 2 14 -8
57 36 47 48 -5 4 -3 5 3 2 7 -4 17 0 24 8 7 8 18 15 24 15 6 0 2 -7 -8 -15
-11 -8 -15 -15 -9 -15 12 0 40 30 35 38 -2 2 14 16 36 31 21 14 38 32 36 39
-1 7 0 8 3 2 8 -17 23 -11 16 7 -6 15 -5 16 9 3 15 -14 13 -17 -15 -32 -41
-22 -28 -23 17 -1 32 15 34 18 18 29 -16 13 -16 13 0 14 11 0 15 5 12 14 -3 8
-1 17 5 21 7 3 8 0 5 -9 -9 -23 12 -19 36 6 11 12 23 18 27 15 3 -4 0 -7 -8
-7 -8 -1 -3 -7 11 -15 33 -19 49 -19 24 0 -16 12 -16 14 -3 15 9 0 22 14 30
32 14 34 63 89 73 82 3 -2 2 1 -2 7 -17 20 -206 -36 -299 -88 -47 -26 -67 -30
-37 -8 12 9 14 14 6 15 -7 0 -10 5 -6 11 9 16 -67 -27 -98 -55 -13 -11 -17
-16 -8 -11 13 9 13 8 2 -7 -8 -9 -19 -15 -26 -12 -16 6 -150 -134 -200 -210
-85 -129 -152 -318 -140 -399 4 -31 3 -38 -5 -27 -8 11 -11 -13 -11 -91 0
-118 17 -229 32 -207 7 9 8 4 4 -14 -7 -29 2 -61 14 -53 5 3 6 -4 3 -14 -9
-34 103 -241 130 -241 7 0 45 66 86 148 l72 147 -15 60 c-9 32 -16 73 -16 90
0 16 -3 46 -6 67 -6 32 -11 37 -40 43 -32 6 -34 8 -34 46 l0 40 42 -3 41 -3
13 57 c47 202 195 381 390 469 l64 29 66 131 c60 122 71 159 44 159 -6 0 -36
-54 -68 -119z m-47 29 c-3 -5 -14 -10 -23 -9 -14 0 -13 2 3 9 27 11 27 11 20
0z m-121 -35 c-4 -8 -11 -15 -16 -15 -6 0 -5 6 2 15 7 8 14 15 16 15 2 0 1 -7
-2 -15z m106 9 c0 -8 -19 -13 -24 -6 -3 5 1 9 9 9 8 0 15 -2 15 -3z m-140 -24
c0 -5 -5 -10 -11 -10 -5 0 -7 5 -4 10 3 6 8 10 11 10 2 0 4 -4 4 -10z m0 -24
c0 -2 -6 -9 -14 -15 -11 -9 -16 -9 -22 0 -4 7 -3 9 4 5 6 -3 13 -2 17 4 6 10
15 14 15 6z m-165 -26 c-3 -5 -16 -15 -28 -21 -21 -10 -21 -9 2 10 25 23 36
27 26 11z m42 -35 c-9 -7 -13 -16 -9 -20 4 -5 1 -5 -7 0 -12 7 -11 10 2 20 9
7 13 16 9 20 -4 5 -1 5 7 0 12 -7 11 -10 -2 -20z m-97 -2 c0 -5 -13 -17 -28
-27 l-27 -19 24 26 c26 28 31 32 31 20z m-60 -16 c0 -2 -15 -16 -32 -33 l-33
-29 29 33 c28 30 36 37 36 29z m167 -22 c0 -8 -4 -15 -9 -15 -10 0 -11 14 -1
23 9 10 10 9 10 -8z m-247 -59 c0 -2 -8 -10 -17 -17 -16 -13 -17 -12 -4 4 13
16 21 21 21 13z m80 -130 c0 -2 -8 -10 -17 -17 -16 -13 -17 -12 -4 4 13 16 21
21 21 13z m-68 -108 c-7 -7 -12 -8 -12 -2 0 14 12 26 19 19 2 -3 -1 -11 -7
-17z m-60 -256 c-7 -2 -12 -15 -12 -29 0 -15 -3 -24 -6 -20 -3 3 -3 25 1 48 6
36 9 40 18 24 7 -14 7 -20 -1 -23z m-12 -97 c0 -5 -5 -3 -10 5 -5 8 -10 20
-10 25 0 6 5 3 10 -5 5 -8 10 -19 10 -25z m7 -97 c-3 -8 -6 -5 -6 6 -1 11 2
17 5 13 3 -3 4 -12 1 -19z m-190 -40 c-2 -13 -4 -5 -4 17 -1 22 1 32 4 23 2
-10 2 -28 0 -40z m10 -65 c-3 -10 -5 -4 -5 12 0 17 2 24 5 18 2 -7 2 -21 0
-30z m30 5 c-3 -8 -6 -5 -6 6 -1 11 2 17 5 13 3 -3 4 -12 1 -19z m10 -40 c-3
-8 -6 -5 -6 6 -1 11 2 17 5 13 3 -3 4 -12 1 -19z m67 -169 c28 -60 35 -91 11
-49 -21 36 -75 177 -74 192 0 7 8 -10 18 -37 10 -28 30 -75 45 -106z m146 66
c0 -5 -5 -3 -10 5 -5 8 -10 20 -10 25 0 6 5 3 10 -5 5 -8 10 -19 10 -25z m-20
-43 c0 -5 -7 -17 -15 -28 -14 -18 -14 -17 -4 9 12 27 19 34 19 19z m-49 -95
c-10 -9 -11 -8 -5 6 3 10 9 15 12 12 3 -3 0 -11 -7 -18z m-61 -17 c6 -11 8
-20 6 -20 -3 0 -10 9 -16 20 -6 11 -8 20 -6 20 3 0 10 -9 16 -20z m31 -43
c-10 -9 -11 -8 -5 6 3 10 9 15 12 12 3 -3 0 -11 -7 -18z"/>
<path d="M1452 2010 c0 -19 2 -27 5 -17 2 9 2 25 0 35 -3 9 -5 1 -5 -18z"/>
<path d="M943 2007 c-3 -5 -16 -7 -29 -4 -13 2 -21 0 -18 -5 4 -6 19 -8 35 -6
17 3 29 0 29 -6 0 -11 20 14 20 25 0 9 -30 6 -37 -4z"/>
<path d="M858 1983 c6 -2 18 -2 25 0 6 3 1 5 -13 5 -14 0 -19 -2 -12 -5z"/>
<path d="M770 1960 c-18 -12 -2 -12 25 0 13 6 15 9 5 9 -8 0 -22 -4 -30 -9z"/>
<path d="M724 1951 c3 -4 -6 -13 -20 -20 -31 -14 -37 -14 -29 -1 3 6 -1 7 -10
3 -14 -5 -14 -8 -3 -15 9 -7 7 -9 -8 -5 -13 3 -21 -1 -21 -9 0 -18 3 -18 66
15 41 21 50 29 37 34 -9 4 -15 3 -12 -2z"/>
<path d="M935 1939 c-4 -6 -5 -12 -2 -15 2 -3 7 2 10 11 7 17 1 20 -8 4z"/>
<path d="M1580 1927 c0 -3 25 -24 56 -48 117 -90 248 -273 303 -424 26 -72 41
-87 41 -41 0 33 -62 165 -109 234 -50 74 -211 239 -258 265 -18 10 -33 16 -33
14z"/>
<path d="M908 1892 c4 -11 1 -13 -8 -7 -9 5 -11 4 -6 -3 4 -6 2 -21 -4 -32 -6
-11 -8 -20 -6 -20 3 0 14 17 25 38 15 29 16 39 6 39 -7 0 -11 -7 -7 -15z"/>
<path d="M1620 1806 c0 -2 8 -10 18 -17 15 -13 16 -12 3 4 -13 16 -21 21 -21
13z"/>
<path d="M1140 1710 c8 -5 20 -10 25 -10 6 0 3 5 -5 10 -8 5 -19 10 -25 10 -5
0 -3 -5 5 -10z"/>
<path d="M1795 1643 c20 -29 39 -53 42 -53 9 0 -32 62 -56 83 -16 15 -11 4 14
-30z"/>
<path d="M549 1653 l-24 -28 28 24 c25 23 32 31 24 31 -2 0 -14 -12 -28 -27z"/>
<path d="M1394 1672 c3 -6 1 -12 -6 -14 -8 -3 -7 -6 3 -10 9 -3 22 -3 29 2 9
6 7 11 -10 20 -12 7 -20 7 -16 2z"/>
<path d="M1580 1645 c19 -19 36 -35 39 -35 3 0 -10 16 -29 35 -19 19 -36 35
-39 35 -3 0 10 -16 29 -35z"/>
<path d="M1750 1663 c0 -4 5 -15 10 -23 8 -13 10 -13 10 2 0 9 -4 20 -10 23
-5 3 -10 3 -10 -2z"/>
<path d="M1748 1603 c7 -3 16 -2 19 1 4 3 -2 6 -13 5 -11 0 -14 -3 -6 -6z"/>
<path d="M1630 1586 c0 -2 8 -10 18 -17 15 -13 16 -12 3 4 -13 16 -21 21 -21
13z"/>
<path d="M1846 1567 c3 -10 9 -15 12 -12 3 3 0 11 -7 18 -10 9 -11 8 -5 -6z"/>
<path d="M1996 1185 c7 -99 -11 -275 -28 -275 -5 0 -6 -10 -3 -21 5 -13 3 -19
-3 -15 -14 8 -24 -37 -10 -49 8 -7 9 -6 4 3 -4 6 0 19 8 28 9 8 16 22 16 30 0
8 6 13 12 11 19 -3 36 94 37 214 1 123 -6 169 -25 169 -12 0 -13 -17 -8 -95z"/>
<path d="M1320 1103 c0 -7 -10 -10 -26 -7 -21 4 -5 -16 76 -93 l102 -98 -51
-39 c-28 -21 -49 -42 -46 -46 3 -5 -15 -25 -40 -45 -25 -21 -42 -42 -38 -48 4
-6 1 -7 -6 -3 -15 9 -53 -22 -45 -36 4 -6 -4 -4 -17 2 -13 7 -21 9 -16 5 4 -5
-2 -19 -14 -31 l-21 -22 22 -12 c12 -7 20 -8 16 -2 -3 5 46 52 109 103 63 51
112 95 110 99 -3 4 2 13 10 20 8 7 13 16 10 20 -3 4 2 14 11 21 13 11 6 21
-53 81 -82 82 -73 91 11 11 33 -32 55 -51 48 -42 -6 9 -10 18 -7 20 2 3 -29
38 -70 79 -41 41 -75 69 -75 63z m75 -77 c33 -34 38 -40 10 -13 -47 43 -75 61
-60 37 11 -17 -1 -11 -23 13 -19 20 -20 24 -6 24 10 0 45 -28 79 -61z m26
-180 c-7 -8 -8 -16 -3 -18 5 -1 -5 -14 -22 -28 -27 -21 -29 -22 -12 -2 11 12
15 22 11 22 -4 0 0 9 10 20 20 23 34 28 16 6z m-61 -69 c0 -2 -10 -12 -22 -23
l-23 -19 19 23 c18 21 26 27 26 19z"/>
<path d="M1915 729 c-10 -21 -24 -39 -30 -39 -16 0 -27 -28 -18 -42 4 -7 1 -8
-7 -3 -10 6 -12 4 -7 -9 4 -9 3 -15 -2 -11 -12 7 -54 -52 -46 -64 3 -5 0 -13
-6 -17 -8 -5 -9 -3 -4 7 5 8 -1 5 -13 -5 -25 -21 -31 -36 -7 -16 8 7 15 8 15
3 0 -13 -35 -44 -42 -38 -3 3 -8 -1 -12 -10 -4 -11 -2 -14 6 -9 7 5 8 3 4 -5
-5 -7 -15 -10 -23 -7 -9 4 -17 -1 -20 -13 -3 -11 -10 -18 -17 -15 -7 3 -21 -6
-32 -18 l-19 -23 23 19 c27 24 30 6 2 -19 -11 -10 -20 -16 -20 -13 0 4 -13 -6
-28 -20 -16 -15 -70 -47 -120 -72 -50 -24 -90 -46 -88 -47 2 -2 32 9 67 23
123 52 274 165 359 269 26 32 130 205 130 216 0 4 -6 9 -14 12 -9 4 -20 -8
-31 -34z"/>
<path d="M655 272 c70 -42 223 -83 302 -81 23 1 5 6 -48 14 -91 13 -170 36
-231 66 -47 24 -62 24 -23 1z"/>
<path d="M1330 236 c0 -2 7 -7 16 -10 8 -3 12 -2 9 4 -6 10 -25 14 -25 6z"/>
<path d="M1215 210 c-27 -7 -27 -8 -5 -8 14 0 36 4 50 8 20 6 21 8 5 8 -11 0
-33 -4 -50 -8z"/>
<path d="M1098 193 c18 -2 45 -2 60 0 15 2 0 4 -33 4 -33 0 -45 -2 -27 -4z"/>
<path d="M1023 183 c9 -2 23 -2 30 0 6 3 -1 5 -18 5 -16 0 -22 -2 -12 -5z"/>
</g>
</svg>
